
nColumns=19
nRows=44
DataType=double
version=3
OpenSimVersion=4.4-2022-10-11-798caa840
endheader
time	ground_force_calcn_r_vx	ground_force_calcn_r_vy	ground_force_calcn_r_vz	ground_force_calcn_r_px	ground_force_calcn_r_py	ground_force_calcn_r_pz	ground_force_calcn_r_mx	ground_force_calcn_r_my	ground_force_calcn_r_mz	ground_force_calcn_l_vx	ground_force_calcn_l_vy	ground_force_calcn_l_vz	ground_force_calcn_l_px	ground_force_calcn_l_py	ground_force_calcn_l_pz	ground_force_calcn_l_mx	ground_force_calcn_l_my	ground_force_calcn_l_mz
6.7	-1.98726	509.441	-31.6586	-0.208001	0	-0.378512	0.008690069999999999	-2.22773	0.13844	-2.08745	185.637	22.0602	-0.198059	0	-0.749169	-0.03611	3.21127	0.381611
6.71	-2.38315	505.833	-31.3829	-0.207139	0	-0.378272	0.0102574	-2.17717	0.135076	-2.40717	184.275	21.9394	-0.196985	0	-0.7491640000000001	-0.0416548	3.18878	0.379651
6.72	-2.74228	502.001	-31.142	-0.206294	0	-0.378033	0.0116721	-2.13668	0.132551	-2.77489	182.803	21.8697	-0.195751	0	-0.749236	-0.0479667	3.15994	0.37804
6.73	-3.06136	498.003	-30.9235	-0.205481	0	-0.377801	0.0129601	-2.10827	0.130913	-3.19039	181.266	21.8556	-0.194375	0	-0.749382	-0.0550038	3.1251	0.3768
6.74	-3.34191	493.891	-30.7153	-0.20471	0	-0.377587	0.0141631	-2.09312	0.130172	-3.64855	179.711	21.8968	-0.192886	0	-0.749592	-0.0626312	3.08492	0.375881
6.75	-3.58907	489.711	-30.5059	-0.203994	0	-0.377399	0.0153285	-2.0915	0.130287	-4.13993	178.19	21.9885	-0.191321	0	-0.749853	-0.0706334	3.04018	0.375157
6.76	-3.80941	485.499	-30.2846	-0.203339	0	-0.377244	0.0164986	-2.1027	0.131163	-4.65217	176.748	22.1231	-0.189726	0	-0.750151	-0.07874780000000001	2.99182	0.374479
6.77	-4.01028	481.282	-30.0421	-0.202751	0	-0.377128	0.0177081	-2.12519	0.132656	-5.17162	175.417	22.2904	-0.188144	0	-0.750466	-0.08670460000000001	2.94095	0.373709
6.78	-4.2004	477.082	-29.7702	-0.202232	0	-0.377055	0.0189899	-2.15688	0.13459	-5.68527	174.213	22.4778	-0.186614	0	-0.750779	-0.09427099999999999	2.88873	0.372719
6.79	-4.38856	472.918	-29.4625	-0.201784	0	-0.377026	0.0203729	-2.19541	0.136773	-6.18219	173.137	22.6705	-0.185172	0	-0.751071	-0.101273	2.83622	0.371375
6.8	-4.58055	468.805	-29.1149	-0.201404	0	-0.377042	0.0218687	-2.23819	0.139002	-6.6532	172.181	22.8539	-0.183846	0	-0.751322	-0.107589	2.78433	0.36957
6.81	-4.77825	464.754	-28.7264	-0.20109	0	-0.3771	0.0234675	-2.28255	0.141084	-7.08965	171.335	23.0161	-0.182657	0	-0.75152	-0.113127	2.73394	0.36726
6.82	-4.98076	460.77	-28.2999	-0.200838	0	-0.377195	0.025144	-2.32608	0.142865	-7.48338	170.591	23.1495	-0.181623	0	-0.751656	-0.11782	2.68584	0.364472
6.83	-5.18495	456.856	-27.8419	-0.200645	0	-0.377322	0.0268626	-2.36691	0.144245	-7.82751	169.941	23.2516	-0.180754	0	-0.751728	-0.12163	2.64067	0.361302
6.84	-5.38503	453.02	-27.3595	-0.200507	0	-0.377473	0.0285757	-2.40396	0.145183	-8.11669	169.375	23.3239	-0.180052	0	-0.751738	-0.124548	2.599	0.357897
6.85	-5.57241	449.272	-26.8607	-0.200424	0	-0.37764	0.030224	-2.43679	0.145689	-8.346959999999999	168.892	23.3705	-0.17952	0	-0.751695	-0.126591	2.56142	0.354439
6.86	-5.73743	445.627	-26.3546	-0.200392	0	-0.377818	0.0317456	-2.46569	0.145822	-8.51505	168.492	23.3983	-0.179156	0	-0.75161	-0.127786	2.52857	0.35114
6.87	-5.87153	442.098	-25.8513	-0.200412	0	-0.378001	0.0330887	-2.49142	0.145684	-8.618370000000001	168.182	23.4163	-0.178957	0	-0.751498	-0.128164	2.50105	0.348225
6.88	-5.96781	438.7	-25.3607	-0.200482	0	-0.378184	0.0342136	-2.51507	0.145393	-8.65541	167.972	23.4344	-0.178919	0	-0.751375	-0.127758	2.47935	0.345903
6.89	-6.02057	435.446	-24.8917	-0.2006	0	-0.378362	0.0350868	-2.5377	0.145064	-8.625640000000001	167.87	23.462	-0.179037	0	-0.751254	-0.126595	2.46377	0.344343
6.9	-6.02511	432.352	-24.4523	-0.200765	0	-0.378535	0.0356786	-2.56024	0.144798	-8.529310000000001	167.887	23.5079	-0.1793	0	-0.75115	-0.124692	2.45439	0.343668
6.91	-5.97746	429.438	-24.0483	-0.200976	0	-0.378699	0.0359607	-2.58352	0.144676	-8.367620000000001	168.033	23.5807	-0.1797	0	-0.751073	-0.122058	2.45109	0.34397
6.92	-5.87464	426.724	-23.6831	-0.201234	0	-0.378854	0.0359056	-2.60812	0.14475	-8.1431	168.316	23.6879	-0.180227	0	-0.751034	-0.118699	2.45349	0.345291
6.93	-5.71558	424.237	-23.3585	-0.201536	0	-0.378997	0.0354915	-2.63434	0.145047	-7.85961	168.746	23.8346	-0.180865	0	-0.751038	-0.114622	2.46094	0.347598
6.94	-5.50207	422.005	-23.0752	-0.20188	0	-0.379129	0.0347093	-2.66218	0.145568	-7.52182	169.323	24.0218	-0.181598	0	-0.751089	-0.109841	2.47263	0.350792
6.95	-5.23794	420.062	-22.833	-0.202264	0	-0.379249	0.0335574	-2.69117	0.146282	-7.13487	170.047	24.2469	-0.18241	0	-0.751183	-0.10438	2.48772	0.354724
6.96	-4.92787	418.442	-22.6309	-0.202684	0	-0.379359	0.032038	-2.72045	0.147132	-6.70435	170.914	24.5046	-0.183283	0	-0.751315	-0.0982773	2.50538	0.359206
6.97	-4.57735	417.179	-22.4679	-0.203137	0	-0.37946	0.0301626	-2.74902	0.148053	-6.236	171.917	24.7878	-0.184204	0	-0.751474	-0.0915847	2.52485	0.364045
6.98	-4.19262	416.306	-22.3436	-0.203618	0	-0.379554	0.027956	-2.77589	0.148985	-5.73595	173.049	25.0896	-0.185159	0	-0.751647	-0.08436970000000001	2.54536	0.369041
6.99	-3.7801	415.855	-22.2572	-0.204126	0	-0.379646	0.0254533	-2.80016	0.149869	-5.21171	174.299	25.4036	-0.186131	0	-0.751827	-0.07672710000000001	2.56604	0.373994
7	-3.3459	415.853	-22.2077	-0.204656	0	-0.379738	0.0226984	-2.82113	0.150656	-4.67358	175.652	25.7242	-0.1871	0	-0.7520019999999999	-0.068803	2.5859	0.378703
7.01	-2.89523	416.331	-22.1938	-0.205205	0	-0.379833	0.0197385	-2.83838	0.151308	-4.13511	177.09	26.046	-0.188045	0	-0.752171	-0.0608045	2.60401	0.382991
7.02	-2.43273	417.319	-22.2138	-0.205769	0	-0.379935	0.0166233	-2.85162	0.151791	-3.6118	178.587	26.3637	-0.188943	0	-0.752328	-0.0529792	2.61958	0.386711
7.03	-1.96374	418.842	-22.2663	-0.206342	0	-0.380044	0.0134127	-2.86077	0.152083	-3.11889	180.119	26.6732	-0.189778	0	-0.752475	-0.045576	2.63207	0.389773
7.04	-1.4946	420.913	-22.3513	-0.206915	0	-0.380158	0.0101761	-2.86582	0.152181	-2.66971	181.661	26.972	-0.190537	0	-0.752609	-0.0388153	2.6412	0.39215
7.05	-1.03116	423.53	-22.4692	-0.207484	0	-0.380278	0.00697995	-2.8669	0.152095	-2.27504	183.187	27.258	-0.191211	0	-0.752733	-0.032874	2.64701	0.393873
7.06	-0.577672	426.673	-22.6209	-0.208041	0	-0.3804	0.00387785	-2.86421	0.151851	-1.94219	184.675	27.5307	-0.191801	0	-0.752848	-0.0278679	2.64984	0.395028
7.07	-0.136715	430.306	-22.8059	-0.208582	0	-0.380523	0.000908085	-2.85818	0.151481	-1.67458	186.111	27.791	-0.192308	0	-0.752955	-0.0238455	2.65017	0.395736
7.08	0.290454	434.381	-23.0225	-0.209107	0	-0.380646	-0.0019052	-2.84927	0.151013	-1.47271	187.483	28.0417	-0.192738	0	-0.753055	-0.0208038	2.64843	0.396124
7.09	0.7043160000000001	438.842	-23.2678	-0.209615	0	-0.380768	-0.00455487	-2.83803	0.150475	-1.33528	188.782	28.286	-0.193091	0	-0.753155	-0.0187083	2.64498	0.396308
7.1	1.1076	443.625	-23.5377	-0.210106	0	-0.38089	-0.00705281	-2.82486	0.14988	-1.25988	190	28.5271	-0.193371	0	-0.753257	-0.0175063	2.64008	0.396389
7.11	1.50546	448.658	-23.8264	-0.210582	0	-0.38101	-0.009428829999999999	-2.80998	0.149226	-1.24331	191.133	28.7681	-0.193585	0	-0.753368	-0.0171336	2.63395	0.396445
7.12	1.90464	453.861	-24.1267	-0.211044	0	-0.38113	-0.0117226	-2.7934	0.148494	-1.28184	192.177	29.0117	-0.193735	0	-0.75349	-0.0175198	2.6266	0.396522
7.13	2.31194	459.148	-24.4298	-0.211496	0	-0.38125	-0.0139728	-2.77497	0.147647	-1.37137	193.127	29.2594	-0.193827	0	-0.75363	-0.0185898	2.61796	0.396629
